Coordinates
version=1
nRows=19
nColumns=24
inDegrees=yes

Units are S.I. units (second, meters, Newtons, ...)
Angles are in degrees.

endheader
time	pelvis_tilt	pelvis_list	pelvis_rotation	pelvis_tx	pelvis_ty	pelvis_tz	hip_flexion_r	hip_adduction_r	hip_rotation_r	knee_angle_r	ankle_angle_r	subtalar_angle_r	mtp_angle_r	hip_flexion_l	hip_adduction_l	hip_rotation_l	knee_angle_l	ankle_angle_l	subtalar_angle_l	mtp_angle_l	lumbar_extension	lumbar_bending	lumbar_rotation
      1.11500000	      7.55819455	     -3.57617472	    -11.60372640	     -0.64402084	      0.97431054	      0.06841681	    -24.43771809	      0.55417818	    -10.62526801	    -10.19542348	     12.06330654	     16.04226602	      6.66936295	     17.59092769	     -9.10746289	    -32.67664031	     -9.72546302	     -3.91098909	      2.16424787	     12.85137121	    -11.44396626	     -8.25299426	    -15.25934369
      1.12000000	      7.53460260	     -3.53430172	    -11.74236271	     -0.63731903	      0.97331420	      0.06806942	    -24.70386258	      0.34731137	    -10.66493620	    -10.39830056	     12.05619031	     15.92682741	      7.02779150	     17.62931458	     -9.10913356	    -32.21711736	    -10.29395788	     -4.20840838	      1.58407855	     12.81137854	    -11.40697097	     -8.39970030	    -15.14867499
      1.12500000	      7.55294160	     -3.46489153	    -11.92038961	     -0.63058166	      0.97244697	      0.06776371	    -25.00152036	      0.08547094	    -10.61288431	    -10.61263308	     12.12126403	     15.80807486	      7.18560643	     17.59446115	     -9.08363808	    -31.86797817	    -10.85364265	     -4.53685543	      1.07647576	     12.79834824	    -11.40283802	     -8.59736859	    -15.00477699
      1.13000000	      7.52854845	     -3.40481710	    -12.01661236	     -0.62382077	      0.97157052	      0.06733328	    -25.25109899	     -0.12440641	    -10.66953215	    -10.81006048	     11.77667263	     15.57431366	      9.45410343	     17.63387246	     -9.05522759	    -31.42991969	    -11.43692188	     -5.10827057	      0.40923416	     13.80603916	    -11.36661907	     -8.76154026	    -14.93708983
      1.13500000	      7.50466541	     -3.31124981	    -12.15821957	     -0.61706310	      0.97079910	      0.06692386	    -25.45919795	     -0.39149556	    -10.63239098	    -11.09256278	     11.74821131	     15.35581458	      9.51668879	     17.65388671	     -9.00424102	    -31.08699671	    -12.02082170	     -5.59499276	     -0.16471437	     13.72709852	    -11.31881458	     -8.96728609	    -14.81448876
      1.14000000	      7.47734491	     -3.21745400	    -12.26700572	     -0.61029429	      0.97011147	      0.06643411	    -25.64643530	     -0.64840803	    -10.60902508	    -11.40383199	     11.66368844	     15.10963552	      9.61965023	     17.68688060	     -8.94644992	    -30.72955068	    -12.62116301	     -6.13069572	     -0.77935017	     13.68347542	    -11.27687253	     -9.16131286	    -14.70879834
      1.14500000	      7.45572615	     -3.12926351	    -12.33501278	     -0.60351635	      0.96950436	      0.06587574	    -25.82736224	     -0.88543491	    -10.61247808	    -11.71760699	     11.27797878	     14.72623181	     11.67362793	     17.73203354	     -8.89038426	    -30.36135461	    -13.24968029	     -6.78745445	     -1.48198965	     14.62106757	    -11.25219388	     -9.34443539	    -14.64486738
      1.15000000	      7.43093121	     -3.01485707	    -12.42998870	     -0.59672534	      0.96901198	      0.06532473	    -25.96330364	     -1.16444108	    -10.55165118	    -12.11116324	     11.12794557	     14.42612130	     11.77361103	     17.76913252	     -8.81755834	    -30.06198422	    -13.88578839	     -7.32622377	     -2.10207231	     14.52568029	    -11.21261665	     -9.55861456	    -14.54366293
      1.15500000	      7.41766559	     -2.88894206	    -12.50190647	     -0.58990536	      0.96862747	      0.06470560	    -26.08797223	     -1.45268568	    -10.49511391	    -12.54533553	     10.91246930	     14.08246249	     11.95344808	     17.79803500	     -8.72656411	    -29.77139928	    -14.53370020	     -7.85903732	     -2.70376154	     14.47622136	    -11.18831084	     -9.77729971	    -14.45994172
      1.16000000	      7.39789361	     -2.75486713	    -12.54949245	     -0.58302716	      0.96832864	      0.06405772	    -26.19355371	     -1.73566261	    -10.45903961	    -12.95871416	     10.25473150	     13.50238227	     14.85815246	     17.84016592	     -8.63207919	    -29.50351841	    -15.20703062	     -8.42318278	     -3.27665961	     15.11004701	    -11.15264488	     -9.99547027	    -14.36288881
      1.16500000	      7.38729572	     -2.61296048	    -12.59052296	     -0.57613348	      0.96814798	      0.06336586	    -26.26998305	     -2.03428920	    -10.39878789	    -13.47300655	      9.95860426	     13.13274945	     14.96742776	     17.87075576	     -8.52359707	    -29.26365955	    -15.89543553	     -8.86847372	     -3.82449163	     15.01781542	    -11.12849580	    -10.21982558	    -14.27505801
      1.17000000	      7.38025187	     -2.47568891	    -12.61372781	     -0.56919951	      0.96806663	      0.06264003	    -26.32706759	     -2.32224872	    -10.31750943	    -13.99930781	      9.25682542	     12.49425422	     17.34831549	     17.88883112	     -8.41703908	    -29.03647162	    -16.58488376	     -9.25668709	     -4.26233349	     15.12427431	    -11.10786068	    -10.42906706	    -14.18015197
      1.17500000	      7.38094279	     -2.33049114	    -12.61101297	     -0.56222775	      0.96807844	      0.06184660	    -26.35862368	     -2.61774589	    -10.26168520	    -14.61246811	      8.84374917	     12.08998457	     17.46495274	     17.89970600	     -8.28692955	    -28.82883044	    -17.27978252	     -9.59150166	     -4.74245615	     15.05869920	    -11.09874465	    -10.63846964	    -14.11628536
      1.18000000	      7.39451760	     -2.19833683	    -12.59420450	     -0.55521586	      0.96819262	      0.06104637	    -26.37994905	     -2.89616246	    -10.18043188	    -15.23231456	      7.97711514	     11.37753663	     20.27186520	     17.88121105	     -8.16578909	    -28.65011780	    -17.97620099	     -9.80852990	     -5.06803512	     15.11171049	    -11.10362377	    -10.83179201	    -14.04436936
      1.18500000	      7.40472481	     -2.06868831	    -12.52803403	     -0.54816774	      0.96837995	      0.06015979	    -26.36259644	     -3.15820300	    -10.14475175	    -15.95768272	      7.42325366	     10.89315276	     20.42441043	     17.86203817	     -8.02082219	    -28.43830390	    -18.64889918	    -10.02001106	     -5.44324446	     15.05665655	    -11.11065656	    -11.00743252	    -14.01299952
      1.19000000	      7.42633418	     -1.95322476	    -12.46464588	     -0.54109097	      0.96867710	      0.05928629	    -26.32723198	     -3.41059880	    -10.06348963	    -16.68511938	      6.39238683	     10.13917357	     23.42346138	     17.80088749	     -7.88625592	    -28.28477735	    -19.30115674	    -10.06566883	     -5.64056331	     14.93674877	    -11.12979648	    -11.16485720	    -13.96321321
      1.19500000	      7.43244937	     -1.84981630	    -12.36723597	     -0.53400285	      0.96902719	      0.05835574	    -26.22961389	     -3.63817927	     -9.99754319	    -17.51856342	      5.51602055	      9.45451972	     24.86830568	     17.73937565	     -7.74447266	    -28.10909048	    -19.91465038	    -10.10369125	     -5.81682600	     14.83884207	    -11.13680454	    -11.29208313	    -13.91855265
      1.20000000	      7.47698455	     -1.75912881	    -12.20111177	     -0.52686041	      0.96950326	      0.05733559	    -26.15515988	     -3.83837792	     -9.98200547	    -18.40122813	      4.67224978	      8.97644802	     24.95913842	     17.61992996	     -7.56931405	    -27.89096014	    -20.48055069	    -10.09918794	     -6.05340084	     14.80797418	    -11.19981372	    -11.40840489	    -13.99734244
      1.20500000	      7.51201974	     -1.69065694	    -12.04502124	     -0.51973264	      0.97002448	      0.05633387	    -26.01973409	     -4.02143862	     -9.95158394	    -19.32373466	      3.43743776	      8.09258282	     28.23912129	     17.48560808	     -7.42097977	    -27.73088989	    -21.03829520	     -9.91413268	     -6.14584156	     14.47481703	    -11.25050289	    -11.48461527	    -13.99640392
